<svg width="376" height="77" viewBox="0 0 376 77" fill="none" xmlns="http://www.w3.org/2000/svg">
<g filter="url(#filter0_d_90_89)">
<path d="M17.8047 1.64062C19.6276 1.64062 21.3984 1.95312 23.1172 2.57812C24.888 3.20312 26.5807 4.11458 28.1953 5.3125C28.4557 5.57292 28.7422 5.83333 29.0547 6.09375C29.3151 5.83333 29.6016 5.57292 29.9141 5.3125C31.5286 4.11458 33.1953 3.20312 34.9141 2.57812C36.6849 1.95312 38.4557 1.64062 40.2266 1.64062C42.0495 1.64062 43.8203 1.95312 45.5391 2.57812C47.3099 3.20312 48.9766 4.14062 50.5391 5.39062C52.1536 6.58854 53.5599 8.20312 54.7578 10.2344C56.0078 12.2656 56.6328 14.6875 56.6328 17.5V45.7031C56.3203 48.8281 54.6016 50.5208 51.4766 50.7812C50.0182 50.7812 48.7422 50.3125 47.6484 49.375C46.6068 48.3854 46.0859 47.1615 46.0859 45.7031V18.125C46.0859 16.875 45.8516 15.8333 45.3828 15C44.9141 14.1146 44.3932 13.4375 43.8203 12.9688C43.2474 12.4479 42.6484 12.0833 42.0234 11.875C41.3984 11.6146 40.7734 11.4844 40.1484 11.4844C39.5234 11.4844 38.8984 11.6146 38.2734 11.875C37.7005 12.0833 37.1276 12.4479 36.5547 12.9688C35.9818 13.4375 35.4609 14.1146 34.9922 15C34.5234 15.8333 34.263 16.875 34.2109 18.125V45.7031C33.8984 48.8281 32.1797 50.5208 29.0547 50.7812C27.5964 50.7812 26.3203 50.3125 25.2266 49.375C24.1849 48.3854 23.6641 47.1615 23.6641 45.7031V18.125C23.6641 16.875 23.4297 15.8333 22.9609 15C22.4922 14.1146 21.9714 13.4375 21.3984 12.9688C20.8255 12.4479 20.2266 12.0833 19.6016 11.875C18.9766 11.6146 18.3516 11.4844 17.7266 11.4844C17.1016 11.4844 16.4766 11.6146 15.8516 11.875C15.2786 12.0833 14.7057 12.4479 14.1328 12.9688C13.5599 13.4375 13.0391 14.1146 12.5703 15C12.1016 15.8333 11.8411 16.875 11.7891 18.125V45.7031C11.5286 48.8281 9.83594 50.5208 6.71094 50.7812C5.2526 50.7812 3.97656 50.3125 2.88281 49.375C1.84115 48.3854 1.32031 47.1615 1.32031 45.7031V17.5C1.42448 14.6875 2.07552 12.2656 3.27344 10.2344C4.47135 8.20312 5.8776 6.58854 7.49219 5.39062C9.10677 4.14062 10.7734 3.20312 12.4922 2.57812C14.263 1.95312 16.0339 1.64062 17.8047 1.64062ZM71.7109 13.4375C73.1693 13.4375 74.4193 13.9323 75.4609 14.9219C76.5026 15.8594 77.0495 17.0573 77.1016 18.5156V26.4062C77.0495 28.5417 77.1797 30.5208 77.4922 32.3438C77.8568 34.1146 78.6901 35.7031 79.9922 37.1094C81.2943 38.5156 82.9349 39.2708 84.9141 39.375H105.773V18.6719C105.773 17.2135 106.294 16.0156 107.336 15.0781C108.43 14.0885 109.706 13.5938 111.164 13.5938C114.289 13.8542 116.008 15.5469 116.32 18.6719V44.1406C116.32 48.3073 115.747 52.2396 114.602 55.9375C113.56 59.2188 111.841 61.9792 109.445 64.2188C107.102 66.5104 104.107 67.7604 100.461 67.9688H73.4297C72.0234 67.9167 70.8255 67.3958 69.8359 66.4062C68.8984 65.4688 68.4036 64.2969 68.3516 62.8906C68.3516 61.4323 68.8203 60.1823 69.7578 59.1406C70.7474 58.099 71.9714 57.5521 73.4297 57.5H97.8047C99.7839 57.3958 101.424 56.6406 102.727 55.2344C104.029 53.8281 104.862 52.1875 105.227 50.3125C105.279 50.1562 105.305 50 105.305 49.8438H82.2578C78.612 49.6354 75.5911 48.4115 73.1953 46.1719C70.8516 43.8802 69.1589 41.0938 68.1172 37.8125C67.1276 34.5312 66.6068 31.0417 66.5547 27.3438V18.5156C66.6068 17.1094 67.1276 15.9375 68.1172 15C69.1068 14.0104 70.3047 13.4896 71.7109 13.4375ZM137.102 7.57812V37.3438C137.102 38.6458 137.779 39.3229 139.133 39.375H166.477C167.466 39.3229 168.326 38.9062 169.055 38.125C169.784 37.2917 170.305 36.3542 170.617 35.3125C170.982 34.2188 171.164 33.125 171.164 32.0312C171.164 30.9896 170.982 29.9479 170.617 28.9062C170.305 27.8125 169.784 26.875 169.055 26.0938C168.326 25.2604 167.466 24.8438 166.477 24.8438H146.477C145.018 24.8438 143.768 24.349 142.727 23.3594C141.737 22.3177 141.242 21.0677 141.242 19.6094C141.242 18.151 141.763 16.9271 142.805 15.9375C143.794 14.8958 145.018 14.375 146.477 14.375H166.164C169.81 14.4271 172.805 15.4688 175.148 17.5C177.544 19.4792 179.237 21.7448 180.227 24.2969C181.268 26.7969 181.789 29.401 181.789 32.1094C181.789 34.7135 181.268 37.2917 180.227 39.8438C179.185 42.3438 177.492 44.6094 175.148 46.6406C172.805 48.6198 169.341 49.6875 164.758 49.8438H131.945C130.487 49.8438 129.237 49.375 128.195 48.4375C127.154 47.4479 126.607 46.224 126.555 44.7656V7.57812C126.555 6.11979 127.076 4.92188 128.117 3.98438C129.211 2.99479 130.487 2.5 131.945 2.5C135.07 2.76042 136.789 4.45312 137.102 7.57812ZM195.617 2.5C197.023 2.55208 198.221 3.07292 199.211 4.0625C200.201 5 200.721 6.17188 200.773 7.57812V45.8594C200.461 48.9844 198.742 50.6771 195.617 50.9375C194.159 50.9375 192.883 50.4688 191.789 49.5312C190.747 48.5417 190.227 47.3177 190.227 45.8594V7.57812C190.279 6.11979 190.826 4.92188 191.867 3.98438C192.909 2.99479 194.159 2.5 195.617 2.5ZM208.977 16.25C212.466 13.9062 217.18 11.5365 223.117 9.14062L235.93 3.67188C236.503 3.41146 237.128 3.25521 237.805 3.20312C239.263 3.09896 240.513 3.54167 241.555 4.53125C242.596 5.46875 243.117 6.69271 243.117 8.20312C243.117 9.92188 242.753 11.1979 242.023 12.0312C241.346 12.8125 240.461 13.4635 239.367 13.9844L228.43 18.125C226.294 18.9583 224.263 19.7917 222.336 20.625C220.461 21.4062 218.742 22.3177 217.18 23.3594C215.617 24.2969 214.784 25.3646 214.68 26.5625C214.784 27.7083 215.617 28.776 217.18 29.7656C218.742 30.8073 220.461 31.7448 222.336 32.5781C224.263 33.3594 226.294 34.1667 228.43 35L240.617 39.4531C241.711 39.974 242.596 40.651 243.273 41.4844C244.003 42.2656 244.367 43.5156 244.367 45.2344C244.367 46.7448 243.846 47.9948 242.805 48.9844C241.763 49.9219 240.513 50.3385 239.055 50.2344C238.378 50.1823 237.753 50.026 237.18 49.7656L223.117 43.9844C217.18 41.5885 212.44 39.2188 208.898 36.875C205.409 34.4792 203.638 31.0417 203.586 26.5625C203.638 22.0833 205.435 18.6458 208.977 16.25ZM295.93 45.7031V26.875C295.93 25.5729 295.253 24.8958 293.898 24.8438H266.555C265.565 24.8958 264.706 25.3385 263.977 26.1719C263.247 26.9531 262.701 27.8906 262.336 28.9844C262.023 30.026 261.867 31.0938 261.867 32.1875C261.867 33.2292 262.023 34.2969 262.336 35.3906C262.701 36.4323 263.247 37.3698 263.977 38.2031C264.706 38.9844 265.565 39.375 266.555 39.375H286.555C288.013 39.375 289.237 39.8958 290.227 40.9375C291.268 41.9271 291.789 43.151 291.789 44.6094C291.789 46.0677 291.268 47.2917 290.227 48.2812C289.237 49.3229 288.013 49.8438 286.555 49.8438H266.867C263.221 49.7917 260.201 48.776 257.805 46.7969C255.461 44.7656 253.768 42.5 252.727 40C251.737 37.4479 251.242 34.8177 251.242 32.1094C251.242 29.5052 251.763 26.9531 252.805 24.4531C253.846 21.901 255.539 19.6354 257.883 17.6562C260.227 15.625 263.69 14.5312 268.273 14.375H301.086C302.544 14.375 303.794 14.8698 304.836 15.8594C305.878 16.7969 306.424 17.9948 306.477 19.4531V45.7031C306.477 47.1615 305.93 48.3854 304.836 49.375C303.794 50.3125 302.544 50.7812 301.086 50.7812C297.961 50.5208 296.242 48.8281 295.93 45.7031ZM318.195 24.2188C319.185 21.7188 320.852 19.4792 323.195 17.5C325.591 15.4688 328.612 14.4271 332.258 14.375H361.633C363.091 14.375 364.315 14.8958 365.305 15.9375C366.346 16.9271 366.867 18.151 366.867 19.6094C366.867 21.0677 366.346 22.3177 365.305 23.3594C364.315 24.349 363.091 24.8438 361.633 24.8438H331.945C330.956 24.8438 330.096 25.2604 329.367 26.0938C328.638 26.875 328.065 27.8125 327.648 28.9062C327.284 30 327.102 31.0417 327.102 32.0312V45.7031C326.789 48.8281 325.07 50.5208 321.945 50.7812C320.487 50.7812 319.211 50.3125 318.117 49.375C317.076 48.3854 316.555 47.1615 316.555 45.7031V32.1094H316.633C316.633 29.401 317.154 26.7708 318.195 24.2188Z" fill="black"/>
</g>
<defs>
<filter id="filter0_d_90_89" x="0.320312" y="0.640625" width="375.547" height="76.3281" filterUnits="userSpaceOnUse" color-interpolation-filters="sRGB">
<feFlood flood-opacity="0" result="BackgroundImageFix"/>
<feColorMatrix in="SourceAlpha" type="matrix" values="0 0 0 0 0 0 0 0 0 0 0 0 0 0 0 0 0 0 127 0" result="hardAlpha"/>
<feOffset dx="4" dy="4"/>
<feGaussianBlur stdDeviation="2.5"/>
<feComposite in2="hardAlpha" operator="out"/>
<feColorMatrix type="matrix" values="0 0 0 0 0 0 0 0 0 0 0 0 0 0 0 0 0 0 0.25 0"/>
<feBlend mode="normal" in2="BackgroundImageFix" result="effect1_dropShadow_90_89"/>
<feBlend mode="normal" in="SourceGraphic" in2="effect1_dropShadow_90_89" result="shape"/>
</filter>
</defs>
</svg>
